<svg xmlns="http://www.w3.org/2000/svg" xmlns:xlink="http://www.w3.org/1999/xlink" width="125.735" height="57" viewBox="0 0 125.735 57">
  <defs>
    <clipPath id="clip-path">
      <path id="Path_16" data-name="Path 16" d="M348.115,295.006l-8.851,8.81H355.1l-15.532,15.532,6.962,6.914,15.516-15.528v15.819l8.851-8.8V295.006Z" transform="translate(-339.264 -295.006)" fill="none"/>
    </clipPath>
  </defs>
  <g id="Group_1" data-name="Group 1" transform="translate(-105.113 -67.006)">
    <path id="Path_1" data-name="Path 1" d="M184.075,378.056h-6.712V364.67h-3.251v-5.53h3.251v-6.064h6.712v6.064h3.8v5.53h-3.8Z" transform="translate(-69 -254.678)" fill="#77838f"/>
    <path id="Path_2" data-name="Path 2" d="M210.232,367.173h.074a6.571,6.571,0,0,1,6.121-3.357h1.29v6.454a5.425,5.425,0,0,0-2.839-.629c-3.725,0-4.646,2.472-4.646,5.716v7.633h-6.71V364.074h6.71Z" transform="translate(-82.51 -259.612)" fill="#77838f"/>
    <path id="Path_3" data-name="Path 3" d="M253.71,382.676H247v-2.1h-.074a6.642,6.642,0,0,1-5.715,2.729c-5.605,0-9.552-4.683-9.552-10.1s3.872-10.068,9.478-10.068A7.715,7.715,0,0,1,247,365.6v-1.843h6.712Zm-15.119-9.44a4.315,4.315,0,0,0,8.629,0,4.315,4.315,0,0,0-8.629,0" transform="translate(-95.437 -259.298)" fill="#77838f"/>
    <path id="Path_4" data-name="Path 4" d="M290.882,371.174h-.075a6.642,6.642,0,0,1-5.716,2.729c-5.6,0-9.551-4.683-9.551-10.1s3.873-10.068,9.478-10.068a7.72,7.72,0,0,1,5.864,2.471V342.671h6.71v30.6h-6.71Zm-8.408-7.338a4.315,4.315,0,0,0,8.629,0,4.315,4.315,0,0,0-8.629,0" transform="translate(-115.596 -249.898)" fill="#77838f"/>
    <path id="Path_5" data-name="Path 5" d="M328.8,347.658a3.761,3.761,0,1,1-3.762-3.761,3.778,3.778,0,0,1,3.762,3.761m-.4,26.181h-6.712V354.923H328.4Z" transform="translate(-136.609 -250.461)" fill="#77838f"/>
    <path id="Path_6" data-name="Path 6" d="M359.507,374.344H345.385c0,2.727,1.437,4.2,4.2,4.2a3.351,3.351,0,0,0,3.209-1.735h6.453a7.719,7.719,0,0,1-3.576,4.906,11.578,11.578,0,0,1-6.048,1.586c-6.269,0-10.951-3.54-10.951-10.068,0-6.3,4.314-10.1,10.473-10.1,6.563,0,10.361,4.057,10.361,10.511Zm-6.232-3.872a4.025,4.025,0,0,0-7.779,0Z" transform="translate(-144.599 -259.298)" fill="#77838f"/>
    <path id="Path_7" data-name="Path 7" d="M387.15,367.173h.074a6.574,6.574,0,0,1,6.122-3.357h1.29v6.454a5.422,5.422,0,0,0-2.838-.629c-3.726,0-4.648,2.472-4.648,5.716v7.633h-6.711V364.074h6.711Z" transform="translate(-163.787 -259.612)" fill="#77838f"/>
    <g id="Group_3" data-name="Group 3" transform="translate(194.393 67.006)" clip-path="url(#clip-path)">
      <path id="Path_8" data-name="Path 8" d="M339.264,328.153l28.561-27.5-13.337,31.333Z" transform="translate(-339.264 -297.6)" fill="#ffd777"/>
      <path id="Path_9" data-name="Path 9" d="M342.417,325.749l-3.744-3.847,14.965-15.137,13.916-6.112Z" transform="translate(-338.992 -297.6)" fill="#f6b350"/>
      <path id="Path_10" data-name="Path 10" d="M336.6,307.242l2.189-2.1,27.814-4.49-12.724,5.758Z" transform="translate(-338.039 -297.6)" fill="#e49197"/>
      <path id="Path_11" data-name="Path 11" d="M380.77,313.328l5.777-12.676-4.881,28.495-.642.62-1.009-.62Z" transform="translate(-357.986 -297.6)" fill="#99bee5"/>
      <path id="Path_12" data-name="Path 12" d="M367.826,297.606l-28.561,5.758,8.564-9.343Z" transform="translate(-339.264 -294.554)" fill="#c44360"/>
      <path id="Path_13" data-name="Path 13" d="M355.637,293.959l3.568-1.231,19.724.936-3.434,3.37Z" transform="translate(-346.786 -293.959)" fill="#9e2951"/>
      <path id="Path_14" data-name="Path 14" d="M381.411,329.147l5.777-28.495L391.6,321.6Z" transform="translate(-358.626 -297.6)" fill="#4797d2"/>
      <path id="Path_15" data-name="Path 15" d="M395.171,317.749,392.1,298.058l3.074-3.053,1.56,20.039Z" transform="translate(-363.536 -295.006)" fill="#0873b0"/>
    </g>
  </g>
</svg>
